<svg xmlns="http://www.w3.org/2000/svg" xmlns:xlink="http://www.w3.org/1999/xlink" width="500" zoomAndPan="magnify" viewBox="0 0 375 374.999991" height="500" preserveAspectRatio="xMidYMid meet" version="1.0"><defs><clipPath id="5a42be7cf6"><path d="M 79 121 L 271 121 L 271 313 L 79 313 Z M 79 121 " clip-rule="nonzero"/></clipPath><clipPath id="c55f5e3b33"><path d="M 175.210938 109.386719 L 282.859375 217.035156 L 175.210938 324.683594 L 67.5625 217.035156 Z M 175.210938 109.386719 " clip-rule="nonzero"/></clipPath><clipPath id="f679ac1c67"><path d="M 195.894531 130.070312 L 262.175781 196.351562 C 267.660156 201.835938 270.742188 209.277344 270.742188 217.035156 C 270.742188 224.792969 267.660156 232.234375 262.175781 237.71875 L 195.894531 304 C 190.40625 309.484375 182.96875 312.566406 175.210938 312.566406 C 167.453125 312.566406 160.011719 309.484375 154.527344 304 L 88.246094 237.71875 C 82.761719 232.234375 79.679688 224.792969 79.679688 217.035156 C 79.679688 209.277344 82.761719 201.835938 88.246094 196.351562 L 154.527344 130.070312 C 160.011719 124.585938 167.453125 121.503906 175.210938 121.503906 C 182.96875 121.503906 190.40625 124.585938 195.894531 130.070312 Z M 195.894531 130.070312 " clip-rule="nonzero"/></clipPath><clipPath id="48bbe8295d"><path d="M 104 62 L 296 62 L 296 254 L 104 254 Z M 104 62 " clip-rule="nonzero"/></clipPath><clipPath id="a32dc095c8"><path d="M 199.789062 50.316406 L 307.4375 157.964844 L 199.789062 265.613281 L 92.140625 157.964844 Z M 199.789062 50.316406 " clip-rule="nonzero"/></clipPath><clipPath id="010a056c9d"><path d="M 220.472656 71 L 286.753906 137.28125 C 292.238281 142.765625 295.320312 150.207031 295.320312 157.964844 C 295.320312 165.722656 292.238281 173.164062 286.753906 178.648438 L 220.472656 244.929688 C 214.988281 250.414062 207.546875 253.496094 199.789062 253.496094 C 192.03125 253.496094 184.59375 250.414062 179.105469 244.929688 L 112.824219 178.648438 C 107.339844 173.164062 104.257812 165.722656 104.257812 157.964844 C 104.257812 150.207031 107.339844 142.765625 112.824219 137.28125 L 179.105469 71 C 184.59375 65.515625 192.03125 62.433594 199.789062 62.433594 C 207.546875 62.433594 214.988281 65.515625 220.472656 71 Z M 220.472656 71 " clip-rule="nonzero"/></clipPath></defs><g clip-path="url(#5a42be7cf6)"><g clip-path="url(#c55f5e3b33)"><g clip-path="url(#f679ac1c67)"><path fill="#ffffff" d="M 175.210938 109.386719 L 282.859375 217.035156 L 175.210938 324.683594 L 67.5625 217.035156 Z M 175.210938 109.386719 " fill-opacity="1" fill-rule="nonzero"/></g></g></g><g clip-path="url(#48bbe8295d)"><g clip-path="url(#a32dc095c8)"><g clip-path="url(#010a056c9d)"><path fill="#1d53fe" d="M 199.789062 50.316406 L 307.4375 157.964844 L 199.789062 265.613281 L 92.140625 157.964844 Z M 199.789062 50.316406 " fill-opacity="1" fill-rule="nonzero"/></g></g></g></svg>