<svg xmlns="http://www.w3.org/2000/svg" xmlns:xlink="http://www.w3.org/1999/xlink" width="500" zoomAndPan="magnify" viewBox="0 0 375 374.999991" height="500" preserveAspectRatio="xMidYMid meet" version="1.0"><defs><g/><clipPath id="ba16aaf1e9"><path d="M 26 156 L 122 156 L 122 252 L 26 252 Z M 26 156 " clip-rule="nonzero"/></clipPath><clipPath id="35aa5a26d4"><path d="M 73.601562 144.257812 L 133.195312 203.851562 L 73.601562 263.445312 L 14.003906 203.851562 Z M 73.601562 144.257812 " clip-rule="nonzero"/></clipPath><clipPath id="5771379c13"><path d="M 94.28125 164.9375 L 112.511719 183.167969 C 123.933594 194.589844 123.933594 213.109375 112.511719 224.535156 L 94.28125 242.761719 C 82.859375 254.183594 64.339844 254.183594 52.917969 242.761719 L 34.6875 224.535156 C 23.265625 213.109375 23.265625 194.589844 34.6875 183.167969 L 52.917969 164.9375 C 64.339844 153.515625 82.859375 153.515625 94.28125 164.9375 Z M 94.28125 164.9375 " clip-rule="nonzero"/></clipPath><clipPath id="8910e7bf53"><path d="M 39 123 L 135 123 L 135 219 L 39 219 Z M 39 123 " clip-rule="nonzero"/></clipPath><clipPath id="885a16dc61"><path d="M 87.207031 111.554688 L 146.800781 171.148438 L 87.207031 230.742188 L 27.613281 171.148438 Z M 87.207031 111.554688 " clip-rule="nonzero"/></clipPath><clipPath id="67ce631391"><path d="M 107.890625 132.238281 L 126.117188 150.464844 C 137.542969 161.890625 137.542969 180.410156 126.117188 191.832031 L 107.890625 210.0625 C 96.46875 221.484375 77.945312 221.484375 66.523438 210.0625 L 48.296875 191.832031 C 36.871094 180.410156 36.871094 161.890625 48.296875 150.464844 L 66.523438 132.238281 C 77.945312 120.816406 96.46875 120.816406 107.890625 132.238281 Z M 107.890625 132.238281 " clip-rule="nonzero"/></clipPath></defs><g fill="#ffffff" fill-opacity="1"><g transform="translate(133.709916, 238.221568)"><g><path d="M 55.890625 -68.84375 L 53.515625 -53.6875 L 32.234375 -53.6875 L 30.40625 -42.1875 L 50.59375 -42.1875 L 48.21875 -27.03125 L 28.03125 -27.03125 L 26.109375 -15.15625 L 47.390625 -15.15625 L 45.015625 0 L 5.84375 0 L 16.703125 -68.84375 Z M 55.890625 -68.84375 "/></g></g></g><g fill="#ffffff" fill-opacity="1"><g transform="translate(174.250102, 238.221568)"><g><path d="M 62.28125 -45.75 C 60.875 -48.1875 58.875 -50.054688 56.28125 -51.359375 C 53.695312 -52.671875 50.851562 -53.328125 47.75 -53.328125 C 41.96875 -53.328125 36.914062 -51.101562 32.59375 -46.65625 C 28.269531 -42.21875 26.109375 -36.953125 26.109375 -30.859375 C 26.109375 -26.296875 27.566406 -22.597656 30.484375 -19.765625 C 33.410156 -16.929688 37.28125 -15.515625 42.09375 -15.515625 C 45.019531 -15.515625 47.957031 -16.171875 50.90625 -17.484375 C 53.851562 -18.796875 56.457031 -20.578125 58.71875 -22.828125 L 55.25 -1.375 C 53.96875 -0.945312 51.726562 -0.304688 48.53125 0.546875 C 45.332031 1.398438 42.148438 1.828125 38.984375 1.828125 C 33.453125 1.828125 28.28125 0.625 23.46875 -1.78125 C 18.65625 -4.1875 14.769531 -7.5625 11.8125 -11.90625 C 8.863281 -16.257812 7.363281 -21.332031 7.3125 -27.125 C 7.3125 -34.914062 9.226562 -42.113281 13.0625 -48.71875 C 16.894531 -55.320312 22.203125 -60.628906 28.984375 -64.640625 C 35.773438 -68.660156 42.765625 -70.671875 49.953125 -70.671875 C 55.066406 -70.671875 60.332031 -69.515625 65.75 -67.203125 Z M 62.28125 -45.75 "/></g></g></g><g fill="#1d53fe" fill-opacity="1"><g transform="translate(243.028625, 238.298)"><g><path d="M 20.203125 -32.625 C 22.828125 -32.625 24.875 -32.097656 26.34375 -31.046875 C 27.820312 -29.992188 28.5625 -28.398438 28.5625 -26.265625 C 28.5625 -21.960938 26.957031 -19.035156 23.75 -17.484375 L 23.75 -17.390625 C 27.414062 -16.898438 29.25 -14.8125 29.25 -11.125 C 29.25 -7.632812 28.054688 -4.90625 25.671875 -2.9375 C 23.296875 -0.976562 20.085938 0 16.046875 0 L 2.765625 0 L 7.921875 -32.625 Z M 15.40625 -26.125 L 14.40625 -19.8125 L 15.53125 -19.8125 C 18.820312 -19.8125 20.46875 -21.097656 20.46875 -23.671875 C 20.46875 -24.503906 20.148438 -25.117188 19.515625 -25.515625 C 18.878906 -25.921875 17.796875 -26.125 16.265625 -26.125 Z M 12.28125 -6.484375 L 14.1875 -6.484375 C 16.582031 -6.484375 18.269531 -6.84375 19.25 -7.5625 C 20.226562 -8.289062 20.71875 -9.300781 20.71875 -10.59375 C 20.71875 -11.632812 20.34375 -12.378906 19.59375 -12.828125 C 18.84375 -13.273438 17.5625 -13.5 15.75 -13.5 L 13.375 -13.5 Z M 12.28125 -6.484375 "/></g></g></g><g fill="#1d53fe" fill-opacity="1"><g transform="translate(267.734951, 238.298)"><g><path d="M 26.78125 -32.625 L 33.921875 0 L 24.875 0 L 23.671875 -5.671875 L 11.984375 -5.671875 L 8.828125 0 L -0.171875 0 L 17.515625 -32.625 Z M 15.359375 -12.15625 L 22.40625 -12.15625 L 20.59375 -22.546875 L 20.515625 -22.546875 Z M 15.359375 -12.15625 "/></g></g></g><g fill="#1d53fe" fill-opacity="1"><g transform="translate(296.941281, 238.298)"><g><path d="M 16.390625 -32.625 L 28.765625 -12.671875 L 28.859375 -12.671875 L 32.015625 -32.625 L 40.5 -32.625 L 35.34375 0 L 26.875 0 L 14.5 -19.984375 L 14.40625 -19.984375 L 11.25 0 L 2.765625 0 L 7.921875 -32.625 Z M 16.390625 -32.625 "/></g></g></g><g fill="#1d53fe" fill-opacity="1"><g transform="translate(330.474535, 238.298)"><g><path d="M 16.390625 -32.625 L 14.28125 -19.171875 L 14.359375 -19.171875 L 26.734375 -32.625 L 37.25 -32.625 L 21.84375 -17.171875 L 33.265625 0 L 22.28125 0 L 13.578125 -14.140625 L 13.5 -14.140625 L 11.25 0 L 2.765625 0 L 7.921875 -32.625 Z M 16.390625 -32.625 "/></g></g></g><g clip-path="url(#ba16aaf1e9)"><g clip-path="url(#35aa5a26d4)"><g clip-path="url(#5771379c13)"><path fill="#ffffff" d="M 73.601562 144.257812 L 133.195312 203.851562 L 73.601562 263.445312 L 14.003906 203.851562 Z M 73.601562 144.257812 " fill-opacity="1" fill-rule="nonzero"/></g></g></g><g clip-path="url(#8910e7bf53)"><g clip-path="url(#885a16dc61)"><g clip-path="url(#67ce631391)"><path fill="#1d53fe" d="M 87.207031 111.554688 L 146.800781 171.148438 L 87.207031 230.742188 L 27.613281 171.148438 Z M 87.207031 111.554688 " fill-opacity="1" fill-rule="nonzero"/></g></g></g></svg>