<svg xmlns="http://www.w3.org/2000/svg" xmlns:xlink="http://www.w3.org/1999/xlink" width="500" zoomAndPan="magnify" viewBox="0 0 375 374.999991" height="500" preserveAspectRatio="xMidYMid meet" version="1.0"><defs><g/></defs><g fill="#ffffff" fill-opacity="1"><g transform="translate(42.054933, 224.223124)"><g><path d="M 70.03125 -86.28125 L 67.0625 -67.296875 L 40.390625 -67.296875 L 38.109375 -52.875 L 63.390625 -52.875 L 60.421875 -33.875 L 35.125 -33.875 L 32.734375 -19 L 59.390625 -19 L 56.421875 0 L 7.328125 0 L 20.9375 -86.28125 Z M 70.03125 -86.28125 "/></g></g></g><g fill="#ffffff" fill-opacity="1"><g transform="translate(92.860767, 224.223124)"><g><path d="M 78.046875 -57.328125 C 76.296875 -60.378906 73.796875 -62.722656 70.546875 -64.359375 C 67.304688 -66.003906 63.738281 -66.828125 59.84375 -66.828125 C 52.601562 -66.828125 46.273438 -64.039062 40.859375 -58.46875 C 35.441406 -52.90625 32.734375 -46.3125 32.734375 -38.6875 C 32.734375 -32.957031 34.5625 -28.316406 38.21875 -24.765625 C 41.882812 -21.222656 46.726562 -19.453125 52.75 -19.453125 C 56.414062 -19.453125 60.097656 -20.269531 63.796875 -21.90625 C 67.492188 -23.550781 70.753906 -25.785156 73.578125 -28.609375 L 69.234375 -1.71875 C 67.628906 -1.1875 64.820312 -0.390625 60.8125 0.671875 C 56.8125 1.742188 52.828125 2.28125 48.859375 2.28125 C 41.921875 2.28125 35.4375 0.773438 29.40625 -2.234375 C 23.382812 -5.242188 18.519531 -9.472656 14.8125 -14.921875 C 11.113281 -20.378906 9.226562 -26.734375 9.15625 -33.984375 C 9.15625 -43.753906 11.554688 -52.773438 16.359375 -61.046875 C 21.171875 -69.328125 27.828125 -75.984375 36.328125 -81.015625 C 44.835938 -86.054688 53.59375 -88.578125 62.59375 -88.578125 C 69 -88.578125 75.597656 -87.125 82.390625 -84.21875 Z M 78.046875 -57.328125 "/></g></g></g><g fill="#1d53fe" fill-opacity="1"><g transform="translate(179.055506, 224.318932)"><g><path d="M 25.328125 -40.890625 C 28.617188 -40.890625 31.1875 -40.226562 33.03125 -38.90625 C 34.875 -37.59375 35.796875 -35.597656 35.796875 -32.921875 C 35.796875 -27.535156 33.789062 -23.863281 29.78125 -21.90625 L 29.78125 -21.796875 C 34.363281 -21.179688 36.65625 -18.5625 36.65625 -13.9375 C 36.65625 -9.5625 35.164062 -6.144531 32.1875 -3.6875 C 29.207031 -1.226562 25.1875 0 20.125 0 L 3.46875 0 L 9.921875 -40.890625 Z M 19.3125 -32.75 L 18.0625 -24.84375 L 19.46875 -24.84375 C 23.59375 -24.84375 25.65625 -26.453125 25.65625 -29.671875 C 25.65625 -30.710938 25.253906 -31.484375 24.453125 -31.984375 C 23.660156 -32.492188 22.304688 -32.75 20.390625 -32.75 Z M 15.40625 -8.140625 L 17.78125 -8.140625 C 20.789062 -8.140625 22.910156 -8.585938 24.140625 -9.484375 C 25.367188 -10.390625 25.984375 -11.65625 25.984375 -13.28125 C 25.984375 -14.582031 25.507812 -15.515625 24.5625 -16.078125 C 23.625 -16.640625 22.015625 -16.921875 19.734375 -16.921875 L 16.765625 -16.921875 Z M 15.40625 -8.140625 "/></g></g></g><g fill="#1d53fe" fill-opacity="1"><g transform="translate(210.018004, 224.318932)"><g><path d="M 33.578125 -40.890625 L 42.515625 0 L 31.1875 0 L 29.671875 -7.109375 L 15.015625 -7.109375 L 11.0625 0 L -0.21875 0 L 21.96875 -40.890625 Z M 19.25 -15.234375 L 28.09375 -15.234375 L 25.8125 -28.25 L 25.703125 -28.25 Z M 19.25 -15.234375 "/></g></g></g><g fill="#1d53fe" fill-opacity="1"><g transform="translate(246.620005, 224.318932)"><g><path d="M 20.5625 -40.890625 L 36.0625 -15.890625 L 36.171875 -15.890625 L 40.140625 -40.890625 L 50.765625 -40.890625 L 44.3125 0 L 33.671875 0 L 18.171875 -25.0625 L 18.0625 -25.0625 L 14.09375 0 L 3.46875 0 L 9.921875 -40.890625 Z M 20.5625 -40.890625 "/></g></g></g><g fill="#1d53fe" fill-opacity="1"><g transform="translate(288.644599, 224.318932)"><g><path d="M 20.5625 -40.890625 L 17.890625 -24.03125 L 18 -24.03125 L 33.515625 -40.890625 L 46.703125 -40.890625 L 27.390625 -21.53125 L 41.703125 0 L 27.9375 0 L 17.03125 -17.734375 L 16.921875 -17.734375 L 14.09375 0 L 3.46875 0 L 9.921875 -40.890625 Z M 20.5625 -40.890625 "/></g></g></g></svg>